<svg xmlns="http://www.w3.org/2000/svg" viewBox="44.30000213623046 115.6299991607666 486.3999938964844 339.5850009918213"><rect height="100%" width="100%" x="44.30000213623046" y="115.6299991607666" fill="#ffffff"/> <svg xmlns="http://www.w3.org/2000/svg" id="Layer_2" viewBox="0 0 194.67999267578125 246.00999450683594" height="148" width="117.11978573830713" y="185.6299991607666" x="228.94" preserveAspectRatio="xMinYMin" style="overflow: visible;"><polygon class="cls-1" points="106.06 44.8 106.06 128.7 93.43 128.16 93.43 34.34 106.06 44.8" style="fill: #d9ac2b; fill-opacity: 1;"></polygon><path class="cls-1" d="m97.33,137.27c2.91,0,5.82.07,8.73.22v62.54l-12.63-10.46v-52.25c1.3-.04,2.6-.05,3.9-.05Z" style="fill: #d9ac2b; fill-opacity: 1;"></path><polygon class="cls-1" points="136.08 14.15 136.08 130 119 129.26 119 0 136.08 14.15" style="fill: #d9ac2b; fill-opacity: 1;"></polygon><path class="cls-1" d="m119,138.59c5.72.68,11.42,1.64,17.08,2.86v29.84l-17.08-14.15v-18.55Z" style="fill: #d9ac2b; fill-opacity: 1;"></path><polygon class="cls-1" points="57.33 91.77 57.33 131.35 53.14 133.14 53.14 88.31 57.33 91.77" style="fill: #d9ac2b; fill-opacity: 1;"></polygon><path class="cls-1" d="m53.14,142.72c1.39-.35,2.79-.68,4.19-.99v64.22l-4.19-3.47v-59.76Z" style="fill: #d9ac2b; fill-opacity: 1;"></path><polygon class="cls-1" points="79.29 72.72 79.29 127.55 70.29 127.16 70.29 65.27 79.29 72.72" style="fill: #d9ac2b; fill-opacity: 1;"></polygon><path class="cls-1" d="m70.29,139.31c2.99-.45,5.99-.83,9-1.13v107.83l-9-7.45v-99.25Z" style="fill: #d9ac2b; fill-opacity: 1;"></path><path class="cls-1" d="m194.68,156.51c-58.75-48.44-135.91-48.45-194.68,0,61.63-34.99,133.05-34.98,194.68,0Z" style="fill: #d9ac2b; fill-opacity: 1;"></path></svg> <svg y="376.6850004196167" viewBox="0.5600000023841858 -0.030000001192092896 346.3999938964844 8.529999732971191" x="114.30000213623046" height="8.529999732971191" width="346.3999938964844" style="overflow: visible;"><g fill="#d9ac2b" fill-opacity="1" style=""><path d="M0.56 1.32L0.56 0.30L5.84 0.30L5.84 1.32L3.71 1.32L3.71 8.25L2.64 8.25L2.64 1.32L0.56 1.32ZM16.07 0.30L17.13 0.30L17.13 8.25L16.07 8.25L16.07 4.76L11.90 4.76L11.90 8.25L10.83 8.25L10.83 0.30L11.90 0.30L11.90 3.75L16.07 3.75L16.07 0.30ZM22.71 8.25L22.71 0.30L27.89 0.30L27.89 1.32L23.78 1.32L23.78 3.74L27.45 3.74L27.45 4.76L23.78 4.76L23.78 7.23L28.04 7.23L28.04 8.25L22.71 8.25ZM46.88 8.50L46.85 8.50L40.70 2.27L41.01 2.34L41.03 8.25L39.96 8.25L39.96 0.05L40.02 0.05L46.10 6.31L45.85 6.26L45.83 0.30L46.88 0.30L46.88 8.50ZM52.47 8.25L52.47 0.30L57.64 0.30L57.64 1.32L53.54 1.32L53.54 3.74L57.20 3.74L57.20 4.76L53.54 4.76L53.54 7.23L57.79 7.23L57.79 8.25L52.47 8.25ZM67.45 8.25L62.28 0.30L63.63 0.30L68.82 8.25L67.45 8.25ZM63.49 8.25L62.17 8.25L64.93 3.93L65.45 4.96L63.49 8.25ZM66.05 4.43L65.48 3.54L67.42 0.30L68.71 0.30L66.05 4.43ZM73.05 1.32L73.05 0.30L78.33 0.30L78.33 1.32L76.20 1.32L76.20 8.25L75.13 8.25L75.13 1.32L73.05 1.32ZM96.33 4.36L96.33 7.57Q96.16 7.71 95.86 7.85Q95.57 7.99 95.21 8.10Q94.85 8.21 94.47 8.27Q94.09 8.34 93.76 8.34L93.76 8.34Q92.81 8.34 92.04 8.04Q91.28 7.74 90.73 7.22Q90.19 6.69 89.90 5.97Q89.61 5.26 89.61 4.42L89.61 4.42Q89.61 3.43 89.93 2.65Q90.25 1.86 90.82 1.31Q91.39 0.77 92.12 0.49Q92.86 0.21 93.69 0.21L93.69 0.21Q94.38 0.21 94.97 0.37Q95.57 0.54 96.02 0.79L96.02 0.79L95.66 1.77Q95.44 1.64 95.11 1.53Q94.79 1.42 94.45 1.35Q94.10 1.28 93.81 1.28L93.81 1.28Q93.10 1.28 92.53 1.49Q91.96 1.71 91.55 2.11Q91.15 2.51 90.93 3.07Q90.71 3.64 90.71 4.35L90.71 4.35Q90.71 4.99 90.93 5.53Q91.15 6.07 91.55 6.46Q91.96 6.85 92.53 7.07Q93.09 7.28 93.77 7.28L93.77 7.28Q94.18 7.28 94.58 7.20Q94.97 7.12 95.26 6.96L95.26 6.96L95.26 5.38L93.68 5.38L93.68 4.36L96.33 4.36ZM101.66 8.25L101.66 0.30L106.83 0.30L106.83 1.32L102.73 1.32L102.73 3.74L106.39 3.74L106.39 4.76L102.73 4.76L102.73 7.23L106.99 7.23L106.99 8.25L101.66 8.25ZM119.05 8.50L119.02 8.50L112.87 2.27L113.18 2.34L113.20 8.25L112.13 8.25L112.13 0.05L112.19 0.05L118.27 6.31L118.02 6.26L118.00 0.30L119.05 0.30L119.05 8.50ZM124.64 8.25L124.64 0.30L129.81 0.30L129.81 1.32L125.71 1.32L125.71 3.74L129.37 3.74L129.37 4.76L125.71 4.76L125.71 7.23L129.96 7.23L129.96 8.25L124.64 8.25ZM135.11 0.30L137.22 0.30Q137.83 0.30 138.34 0.46Q138.85 0.62 139.23 0.93Q139.61 1.24 139.83 1.70Q140.04 2.16 140.04 2.76L140.04 2.76Q140.04 3.23 139.90 3.69Q139.77 4.14 139.45 4.50Q139.13 4.87 138.62 5.10Q138.10 5.32 137.36 5.32L137.36 5.32L136.18 5.32L136.18 8.25L135.11 8.25L135.11 0.30ZM136.18 4.30L137.33 4.30Q137.81 4.30 138.12 4.16Q138.43 4.02 138.61 3.79Q138.79 3.56 138.86 3.30Q138.94 3.04 138.94 2.81L138.94 2.81Q138.94 2.56 138.86 2.30Q138.78 2.05 138.59 1.83Q138.41 1.61 138.12 1.46Q137.83 1.32 137.41 1.32L137.41 1.32L136.18 1.32L136.18 4.30ZM137.38 4.94L138.64 4.91L140.72 8.25L139.49 8.25L137.38 4.94ZM145.91 8.25L144.87 8.25L148.35-0.03L148.41-0.03L151.88 8.25L150.66 8.25L148.06 1.64L148.82 1.14L145.91 8.25ZM146.60 6.16L146.90 5.24L149.86 5.24L150.22 6.16L146.60 6.16ZM155.47 1.32L155.47 0.30L160.75 0.30L160.75 1.32L158.62 1.32L158.62 8.25L157.55 8.25L157.55 1.32L155.47 1.32ZM165.75 8.25L165.75 0.30L166.81 0.30L166.81 8.25L165.75 8.25ZM171.91 4.28L171.91 4.28Q171.91 3.45 172.22 2.72Q172.53 1.99 173.10 1.42Q173.66 0.86 174.39 0.53Q175.12 0.21 175.97 0.21L175.97 0.21Q176.80 0.21 177.53 0.53Q178.27 0.86 178.83 1.42Q179.40 1.99 179.72 2.72Q180.04 3.45 180.04 4.28L180.04 4.28Q180.04 5.13 179.72 5.86Q179.40 6.60 178.84 7.16Q178.28 7.71 177.54 8.02Q176.80 8.34 175.97 8.34L175.97 8.34Q175.12 8.34 174.39 8.03Q173.66 7.72 173.10 7.17Q172.53 6.62 172.22 5.88Q171.91 5.15 171.91 4.28ZM173.01 4.29L173.01 4.29Q173.01 4.92 173.24 5.46Q173.47 6.01 173.88 6.42Q174.28 6.84 174.82 7.08Q175.36 7.32 175.99 7.32L175.99 7.32Q176.60 7.32 177.14 7.08Q177.68 6.84 178.08 6.42Q178.47 6.01 178.71 5.46Q178.94 4.92 178.94 4.28L178.94 4.28Q178.94 3.65 178.71 3.10Q178.47 2.54 178.07 2.12Q177.66 1.71 177.12 1.47Q176.58 1.23 175.97 1.23L175.97 1.23Q175.34 1.23 174.80 1.47Q174.26 1.72 173.85 2.13Q173.45 2.55 173.23 3.11Q173.01 3.66 173.01 4.29ZM192.05 8.50L192.02 8.50L185.87 2.27L186.17 2.34L186.20 8.25L185.13 8.25L185.13 0.05L185.19 0.05L191.27 6.31L191.01 6.26L190.99 0.30L192.05 0.30L192.05 8.50ZM203.92 4.28L203.92 4.28Q203.92 3.45 204.23 2.72Q204.55 1.99 205.11 1.42Q205.67 0.86 206.40 0.53Q207.13 0.21 207.98 0.21L207.98 0.21Q208.81 0.21 209.54 0.53Q210.28 0.86 210.84 1.42Q211.41 1.99 211.73 2.72Q212.05 3.45 212.05 4.28L212.05 4.28Q212.05 5.13 211.73 5.86Q211.41 6.60 210.85 7.16Q210.29 7.71 209.55 8.02Q208.81 8.34 207.98 8.34L207.98 8.34Q207.13 8.34 206.40 8.03Q205.67 7.72 205.11 7.17Q204.55 6.62 204.23 5.88Q203.92 5.15 203.92 4.28ZM205.02 4.29L205.02 4.29Q205.02 4.92 205.25 5.46Q205.48 6.01 205.89 6.42Q206.29 6.84 206.83 7.08Q207.37 7.32 208.00 7.32L208.00 7.32Q208.62 7.32 209.15 7.08Q209.69 6.84 210.09 6.42Q210.49 6.01 210.72 5.46Q210.95 4.92 210.95 4.28L210.95 4.28Q210.95 3.65 210.72 3.10Q210.49 2.54 210.08 2.12Q209.67 1.71 209.13 1.47Q208.59 1.23 207.98 1.23L207.98 1.23Q207.35 1.23 206.81 1.47Q206.27 1.72 205.87 2.13Q205.46 2.55 205.24 3.11Q205.02 3.66 205.02 4.29ZM217.14 8.25L217.14 0.30L221.86 0.30L221.86 1.32L218.21 1.32L218.21 3.86L221.41 3.86L221.41 4.87L218.21 4.87L218.21 8.25L217.14 8.25ZM233.70 0.30L235.74 0.30Q236.94 0.30 237.63 0.79Q238.32 1.28 238.32 2.31L238.32 2.31Q238.32 2.94 238.03 3.40Q237.74 3.86 237.23 4.13Q236.72 4.39 236.03 4.42L236.03 4.42L235.87 3.87Q236.68 3.89 237.31 4.16Q237.95 4.42 238.33 4.89Q238.70 5.37 238.70 6.02L238.70 6.02Q238.70 6.61 238.48 7.03Q238.26 7.46 237.89 7.73Q237.51 8.00 237.04 8.12Q236.57 8.25 236.06 8.25L236.06 8.25L233.70 8.25L233.70 0.30ZM234.76 3.78L235.96 3.78Q236.62 3.78 236.92 3.42Q237.22 3.05 237.22 2.52L237.22 2.52Q237.22 1.89 236.83 1.61Q236.45 1.32 235.80 1.32L235.80 1.32L234.76 1.32L234.76 3.78ZM234.76 7.26L236.01 7.26Q236.45 7.26 236.81 7.13Q237.18 7.00 237.40 6.72Q237.61 6.45 237.61 6.03L237.61 6.03Q237.61 5.57 237.36 5.30Q237.12 5.04 236.73 4.92Q236.35 4.81 235.94 4.81L235.94 4.81L234.76 4.81L234.76 7.26ZM243.30 4.28L243.30 4.28Q243.30 3.45 243.61 2.72Q243.93 1.99 244.49 1.42Q245.05 0.86 245.78 0.53Q246.51 0.21 247.36 0.21L247.36 0.21Q248.19 0.21 248.92 0.53Q249.66 0.86 250.22 1.42Q250.79 1.99 251.11 2.72Q251.43 3.45 251.43 4.28L251.43 4.28Q251.43 5.13 251.11 5.86Q250.79 6.60 250.23 7.16Q249.67 7.71 248.93 8.02Q248.19 8.34 247.36 8.34L247.36 8.34Q246.51 8.34 245.78 8.03Q245.05 7.72 244.49 7.17Q243.93 6.62 243.61 5.88Q243.30 5.15 243.30 4.28ZM244.40 4.29L244.40 4.29Q244.40 4.92 244.63 5.46Q244.86 6.01 245.27 6.42Q245.67 6.84 246.21 7.08Q246.75 7.32 247.38 7.32L247.38 7.32Q248.00 7.32 248.53 7.08Q249.07 6.84 249.47 6.42Q249.87 6.01 250.10 5.46Q250.33 4.92 250.33 4.28L250.33 4.28Q250.33 3.65 250.10 3.10Q249.87 2.54 249.46 2.12Q249.05 1.71 248.51 1.47Q247.97 1.23 247.36 1.23L247.36 1.23Q246.73 1.23 246.19 1.47Q245.65 1.72 245.25 2.13Q244.84 2.55 244.62 3.11Q244.40 3.66 244.40 4.29ZM256.03 4.28L256.03 4.28Q256.03 3.45 256.34 2.72Q256.65 1.99 257.21 1.42Q257.77 0.86 258.51 0.53Q259.24 0.21 260.08 0.21L260.08 0.21Q260.92 0.21 261.65 0.53Q262.38 0.86 262.95 1.42Q263.52 1.99 263.84 2.72Q264.15 3.45 264.15 4.28L264.15 4.28Q264.15 5.13 263.84 5.86Q263.52 6.60 262.96 7.16Q262.39 7.71 261.66 8.02Q260.92 8.34 260.08 8.34L260.08 8.34Q259.24 8.34 258.51 8.03Q257.77 7.72 257.21 7.17Q256.65 6.62 256.34 5.88Q256.03 5.15 256.03 4.28ZM257.13 4.29L257.13 4.29Q257.13 4.92 257.36 5.46Q257.59 6.01 257.99 6.42Q258.40 6.84 258.94 7.08Q259.48 7.32 260.11 7.32L260.11 7.32Q260.72 7.32 261.26 7.08Q261.80 6.84 262.20 6.42Q262.59 6.01 262.82 5.46Q263.05 4.92 263.05 4.28L263.05 4.28Q263.05 3.65 262.82 3.10Q262.59 2.54 262.19 2.12Q261.78 1.71 261.24 1.47Q260.70 1.23 260.08 1.23L260.08 1.23Q259.46 1.23 258.92 1.47Q258.38 1.72 257.97 2.13Q257.57 2.55 257.35 3.11Q257.13 3.66 257.13 4.29ZM270.33 0.30L270.33 3.50L270.29 3.89L270.44 3.70L273.69 0.30L275.07 0.30L271.78 3.71L275.25 8.25L273.90 8.25L271.00 4.39L270.33 5.04L270.33 8.25L269.25 8.25L269.25 0.30L270.33 0.30ZM281.09 0.30L281.09 3.50L281.06 3.89L281.20 3.70L284.46 0.30L285.84 0.30L282.55 3.71L286.02 8.25L284.67 8.25L281.77 4.39L281.09 5.04L281.09 8.25L280.02 8.25L280.02 0.30L281.09 0.30ZM290.79 8.25L290.79 0.30L295.96 0.30L295.96 1.32L291.85 1.32L291.85 3.74L295.52 3.74L295.52 4.76L291.85 4.76L291.85 7.23L296.11 7.23L296.11 8.25L290.79 8.25ZM301.26 8.25L301.26 0.30L306.43 0.30L306.43 1.32L302.32 1.32L302.32 3.74L305.99 3.74L305.99 4.76L302.32 4.76L302.32 7.23L306.58 7.23L306.58 8.25L301.26 8.25ZM311.73 0.30L313.85 0.30Q314.72 0.30 315.34 0.59Q315.95 0.88 316.29 1.43Q316.62 1.98 316.62 2.76L316.62 2.76Q316.62 3.23 316.48 3.69Q316.34 4.15 316.02 4.52Q315.71 4.88 315.21 5.10Q314.70 5.32 313.97 5.32L313.97 5.32L312.80 5.32L312.80 8.25L311.73 8.25L311.73 0.30ZM312.80 4.30L313.96 4.30Q314.44 4.30 314.74 4.15Q315.05 3.99 315.23 3.76Q315.40 3.52 315.48 3.26Q315.56 2.99 315.56 2.78L315.56 2.78Q315.56 2.54 315.48 2.28Q315.40 2.02 315.22 1.81Q315.04 1.60 314.75 1.46Q314.46 1.32 314.03 1.32L314.03 1.32L312.80 1.32L312.80 4.30ZM321.57 8.25L321.57 0.30L322.64 0.30L322.64 8.25L321.57 8.25ZM335.15 8.50L335.12 8.50L328.97 2.27L329.27 2.34L329.30 8.25L328.23 8.25L328.23 0.05L328.28 0.05L334.37 6.31L334.11 6.26L334.09 0.30L335.15 0.30L335.15 8.50ZM346.96 4.36L346.96 7.57Q346.80 7.71 346.50 7.85Q346.20 7.99 345.85 8.10Q345.49 8.21 345.11 8.27Q344.73 8.34 344.40 8.34L344.40 8.34Q343.44 8.34 342.68 8.04Q341.91 7.74 341.37 7.22Q340.82 6.69 340.53 5.97Q340.24 5.26 340.24 4.42L340.24 4.42Q340.24 3.43 340.57 2.65Q340.89 1.86 341.46 1.31Q342.02 0.77 342.76 0.49Q343.50 0.21 344.32 0.21L344.32 0.21Q345.02 0.21 345.61 0.37Q346.20 0.54 346.65 0.79L346.65 0.79L346.29 1.77Q346.07 1.64 345.75 1.53Q345.42 1.42 345.08 1.35Q344.74 1.28 344.44 1.28L344.44 1.28Q343.74 1.28 343.17 1.49Q342.60 1.71 342.19 2.11Q341.78 2.51 341.56 3.07Q341.34 3.64 341.34 4.35L341.34 4.35Q341.34 4.99 341.56 5.53Q341.78 6.07 342.19 6.46Q342.60 6.85 343.16 7.07Q343.73 7.28 344.41 7.28L344.41 7.28Q344.82 7.28 345.21 7.20Q345.61 7.12 345.90 6.96L345.90 6.96L345.90 5.38L344.31 5.38L344.31 4.36L346.96 4.36Z" transform="translate(0, 0)"></path></g></svg> <svg y="343.3149995803833" viewBox="1.7300000190734863 8.829999923706055 342.5317687988281 22.850000381469727" x="116.23411865234375" height="22.850000381469727" width="342.5317687988281" style="overflow: visible;"><g fill="#0a163c" fill-opacity="1" style=""><path d="M4.96 8.83L4.96 8.83L9.06 8.83Q11.33 8.83 12.98 9.47Q14.62 10.11 15.50 11.31Q16.38 12.51 16.38 14.21L16.38 14.21Q16.38 15.62 15.86 16.62Q15.33 17.63 14.50 18.22Q13.66 18.82 12.74 19.04L12.74 19.04Q14.40 19.26 15.66 20.10Q16.93 20.93 17.60 22.21Q18.27 23.49 18.27 25.15L18.27 25.15Q18.27 27.01 17.33 28.38Q16.38 29.76 14.59 30.50Q12.80 31.23 10.30 31.23L10.30 31.23L6.88 31.23Q6.88 31.23 6.90 30.91Q6.91 30.59 6.91 30.29Q6.91 29.98 6.91 29.98L6.91 29.98L9.76 29.98Q11.36 29.98 12.50 29.41Q13.63 28.83 14.24 27.68Q14.85 26.53 14.85 24.86L14.85 24.86Q14.85 23.20 14.24 22.13Q13.63 21.06 12.67 20.46Q11.71 19.87 10.54 19.63Q9.38 19.39 8.26 19.39L8.26 19.39L8.26 19.10Q8.99 19.10 9.82 18.91Q10.66 18.72 11.41 18.24Q12.16 17.76 12.62 16.85Q13.09 15.94 13.09 14.50L13.09 14.50Q13.09 12.99 12.58 11.98Q12.06 10.98 11.06 10.48Q10.05 9.98 8.61 9.98L8.61 9.98L5.28 9.98Q5.28 9.95 5.20 9.68Q5.12 9.41 5.04 9.12Q4.96 8.83 4.96 8.83ZM4.19 8.83L7.17 8.83L7.17 31.23L4.19 31.23L4.19 8.83ZM4.19 28.90L4.29 28.90L4.29 31.23L1.73 31.23L1.76 30.91Q1.82 30.91 1.97 30.91Q2.11 30.91 2.14 30.91L2.14 30.91Q2.98 30.91 3.58 30.32Q4.19 29.73 4.19 28.90L4.19 28.90ZM4.29 8.83L4.29 11.17L4.19 11.17Q4.19 10.34 3.58 9.74Q2.98 9.15 2.14 9.15L2.14 9.15Q2.11 9.15 1.97 9.15Q1.82 9.15 1.76 9.15L1.76 9.15L1.73 8.83L4.29 8.83ZM36.00 12.03L38.91 12.03L38.91 31.23L36.00 31.23L36.00 12.03ZM38.85 30.14L47.14 30.14L47.36 31.23L38.85 31.23L38.85 30.14ZM38.85 21.12L45.79 21.12L45.79 22.21L38.85 22.21L38.85 21.12ZM38.85 12.03L47.23 12.03L47.23 13.12L38.85 13.12L38.85 12.03ZM48.70 26.21L49.02 26.21L47.46 31.23L42.37 31.23L43.42 30.14Q44.93 30.14 45.94 29.65Q46.94 29.15 47.62 28.26Q48.29 27.36 48.70 26.21L48.70 26.21ZM43.74 22.14L45.79 22.14L45.79 24.29L45.44 24.29L45.44 23.94Q45.44 23.20 45.01 22.70Q44.58 22.21 43.74 22.21L43.74 22.21L43.74 22.14ZM45.44 19.04L45.79 19.04L45.79 21.18L43.74 21.18L43.74 21.12Q44.58 21.12 45.01 20.61Q45.44 20.10 45.44 19.39L45.44 19.39L45.44 19.04ZM44.86 13.02L47.23 13.02L47.23 15.65L46.91 15.65L46.91 15.23Q46.91 14.30 46.37 13.71Q45.82 13.12 44.86 13.12L44.86 13.12L44.86 13.02ZM47.23 11.52L47.23 11.52L47.23 12.35L43.68 12.03Q44.67 12.03 45.76 11.86Q46.85 11.68 47.23 11.52ZM36.00 29.18L36.06 29.18L36.42 31.23L33.76 31.23L33.76 30.91Q33.76 30.91 33.97 30.91Q34.18 30.91 34.21 30.91L34.21 30.91Q34.98 30.91 35.47 30.40Q35.97 29.89 36.00 29.18L36.00 29.18ZM36.42 12.03L36.06 14.05L36.00 14.05Q35.97 13.31 35.47 12.83Q34.98 12.35 34.21 12.35L34.21 12.35Q34.18 12.35 33.97 12.35Q33.76 12.35 33.76 12.35L33.76 12.35L33.76 12.03L36.42 12.03ZM70.62 12.13L73.57 12.13L73.57 31.23L70.62 31.23L70.62 12.13ZM63.14 12L81.06 12L81.06 13.06L63.14 13.06L63.14 12ZM78.66 12.99L81.06 12.99L81.06 15.58L80.70 15.58L80.70 15.17Q80.70 14.24 80.16 13.66Q79.62 13.09 78.66 13.06L78.66 13.06L78.66 12.99ZM81.06 11.49L81.06 11.49L81.06 12.32L77.54 12Q78.14 12 78.86 11.92Q79.58 11.84 80.18 11.71Q80.77 11.58 81.06 11.49ZM70.62 29.18L70.69 29.18L70.69 31.23L68.42 31.23L68.42 30.91Q68.45 30.91 68.62 30.91Q68.80 30.91 68.80 30.91L68.80 30.91Q69.54 30.91 70.06 30.40Q70.59 29.89 70.62 29.18L70.62 29.18ZM73.47 31.23L73.47 29.18L73.57 29.18Q73.57 29.89 74.11 30.40Q74.66 30.91 75.39 30.91L75.39 30.91Q75.39 30.91 75.57 30.91Q75.74 30.91 75.74 30.91L75.74 30.91L75.74 31.23L73.47 31.23ZM63.14 12.99L65.54 12.99L65.54 13.06Q64.58 13.09 64.03 13.66Q63.49 14.24 63.49 15.17L63.49 15.17L63.49 15.58L63.14 15.58L63.14 12.99ZM63.14 12.32L63.14 11.49Q63.42 11.58 64.02 11.71Q64.61 11.84 65.33 11.92Q66.05 12 66.66 12L66.66 12L63.14 12.32ZM102.66 12.13L105.60 12.13L105.60 31.23L102.66 31.23L102.66 12.13ZM95.17 12L113.09 12L113.09 13.06L95.17 13.06L95.17 12ZM110.69 12.99L113.09 12.99L113.09 15.58L112.74 15.58L112.74 15.17Q112.74 14.24 112.19 13.66Q111.65 13.09 110.69 13.06L110.69 13.06L110.69 12.99ZM113.09 11.49L113.09 11.49L113.09 12.32L109.57 12Q110.18 12 110.90 11.92Q111.62 11.84 112.21 11.71Q112.80 11.58 113.09 11.49ZM102.66 29.18L102.72 29.18L102.72 31.23L100.45 31.23L100.45 30.91Q100.48 30.91 100.66 30.91Q100.83 30.91 100.83 30.91L100.83 30.91Q101.57 30.91 102.10 30.40Q102.62 29.89 102.66 29.18L102.66 29.18ZM105.50 31.23L105.50 29.18L105.60 29.18Q105.60 29.89 106.14 30.40Q106.69 30.91 107.42 30.91L107.42 30.91Q107.42 30.91 107.60 30.91Q107.78 30.91 107.78 30.91L107.78 30.91L107.78 31.23L105.50 31.23ZM95.17 12.99L97.57 12.99L97.57 13.06Q96.61 13.09 96.06 13.66Q95.52 14.24 95.52 15.17L95.52 15.17L95.52 15.58L95.17 15.58L95.17 12.99ZM95.17 12.32L95.17 11.49Q95.46 11.58 96.05 11.71Q96.64 11.84 97.36 11.92Q98.08 12 98.69 12L98.69 12L95.17 12.32ZM130.14 12.03L133.06 12.03L133.06 31.23L130.14 31.23L130.14 12.03ZM132.99 30.14L141.28 30.14L141.50 31.23L132.99 31.23L132.99 30.14ZM132.99 21.12L139.94 21.12L139.94 22.21L132.99 22.21L132.99 21.12ZM132.99 12.03L141.38 12.03L141.38 13.12L132.99 13.12L132.99 12.03ZM142.85 26.21L143.17 26.21L141.60 31.23L136.51 31.23L137.57 30.14Q139.07 30.14 140.08 29.65Q141.09 29.15 141.76 28.26Q142.43 27.36 142.85 26.21L142.85 26.21ZM137.89 22.14L139.94 22.14L139.94 24.29L139.58 24.29L139.58 23.94Q139.58 23.20 139.15 22.70Q138.72 22.21 137.89 22.21L137.89 22.21L137.89 22.14ZM139.58 19.04L139.94 19.04L139.94 21.18L137.89 21.18L137.89 21.12Q138.72 21.12 139.15 20.61Q139.58 20.10 139.58 19.39L139.58 19.39L139.58 19.04ZM139.01 13.02L141.38 13.02L141.38 15.65L141.06 15.65L141.06 15.23Q141.06 14.30 140.51 13.71Q139.97 13.12 139.01 13.12L139.01 13.12L139.01 13.02ZM141.38 11.52L141.38 11.52L141.38 12.35L137.82 12.03Q138.82 12.03 139.90 11.86Q140.99 11.68 141.38 11.52ZM130.14 29.18L130.21 29.18L130.56 31.23L127.90 31.23L127.90 30.91Q127.90 30.91 128.11 30.91Q128.32 30.91 128.35 30.91L128.35 30.91Q129.12 30.91 129.62 30.40Q130.11 29.89 130.14 29.18L130.14 29.18ZM130.56 12.03L130.21 14.05L130.14 14.05Q130.11 13.31 129.62 12.83Q129.12 12.35 128.35 12.35L128.35 12.35Q128.32 12.35 128.11 12.35Q127.90 12.35 127.90 12.35L127.90 12.35L127.90 12.03L130.56 12.03ZM162.91 12.03L162.91 12.03L166.82 12.03Q168.26 12.03 169.47 12.35Q170.69 12.67 171.58 13.33Q172.48 13.98 172.98 14.96Q173.47 15.94 173.47 17.25L173.47 17.25Q173.47 18.50 172.90 19.63Q172.32 20.77 171.23 21.54Q170.14 22.30 168.67 22.50L168.67 22.50Q169.34 22.72 170.11 23.52Q170.88 24.32 171.36 25.06L171.36 25.06Q171.42 25.12 171.81 25.68Q172.19 26.24 172.78 27.02Q173.38 27.81 173.98 28.58L173.98 28.58Q174.66 29.34 175.18 29.86Q175.71 30.37 176.32 30.64Q176.93 30.91 177.73 30.91L177.73 30.91L177.73 31.23L176.19 31.23Q174.43 31.23 173.28 30.85Q172.13 30.46 171.36 29.79Q170.59 29.12 170.02 28.32L170.02 28.32Q169.82 28.10 169.41 27.46Q168.99 26.82 168.53 26.10Q168.06 25.38 167.68 24.77Q167.30 24.16 167.20 23.97L167.20 23.97Q166.62 23.07 165.90 22.48Q165.18 21.89 164.42 21.89L164.42 21.89L164.42 21.57Q164.42 21.57 164.83 21.58Q165.25 21.60 165.89 21.57L165.89 21.57Q166.72 21.54 167.54 21.39Q168.35 21.25 169.06 20.62Q169.76 20 170.14 18.66L170.14 18.66Q170.24 18.37 170.30 17.94Q170.37 17.50 170.34 16.99L170.34 16.99Q170.27 16.00 169.95 15.30Q169.63 14.59 169.07 14.13Q168.51 13.66 167.82 13.42Q167.14 13.18 166.34 13.15L166.34 13.15Q165.15 13.12 164.24 13.14Q163.33 13.15 163.23 13.12L163.23 13.12Q163.23 13.12 163.15 12.85Q163.07 12.58 162.99 12.30Q162.91 12.03 162.91 12.03ZM160.38 12.03L163.30 12.03L163.30 31.23L160.38 31.23L160.38 12.03ZM160.42 29.18L160.48 29.18L160.77 31.23L158.18 31.23L158.18 30.91Q158.21 30.91 158.40 30.91Q158.59 30.91 158.62 30.91L158.62 30.91Q159.36 30.91 159.87 30.40Q160.38 29.89 160.42 29.18L160.42 29.18ZM160.77 12.03L160.48 14.05L160.42 14.05Q160.38 13.31 159.87 12.83Q159.36 12.35 158.62 12.35L158.62 12.35Q158.59 12.35 158.40 12.35Q158.21 12.35 158.18 12.35L158.18 12.35L158.18 12.03L160.77 12.03ZM162.88 31.23L163.20 29.18L163.30 29.18Q163.30 29.92 163.82 30.42Q164.35 30.91 165.09 30.91L165.09 30.91Q165.09 30.91 165.26 30.91Q165.44 30.91 165.47 30.91L165.47 30.91L165.50 31.23L162.88 31.23ZM194.72 8.83L194.72 8.83L198.82 8.83Q201.09 8.83 202.74 9.47Q204.38 10.11 205.26 11.31Q206.14 12.51 206.14 14.21L206.14 14.21Q206.14 15.62 205.62 16.62Q205.09 17.63 204.26 18.22Q203.42 18.82 202.50 19.04L202.50 19.04Q204.16 19.26 205.42 20.10Q206.69 20.93 207.36 22.21Q208.03 23.49 208.03 25.15L208.03 25.15Q208.03 27.01 207.09 28.38Q206.14 29.76 204.35 30.50Q202.56 31.23 200.06 31.23L200.06 31.23L196.64 31.23Q196.64 31.23 196.66 30.91Q196.67 30.59 196.67 30.29Q196.67 29.98 196.67 29.98L196.67 29.98L199.52 29.98Q201.12 29.98 202.26 29.41Q203.39 28.83 204 27.68Q204.61 26.53 204.61 24.86L204.61 24.86Q204.61 23.20 204 22.13Q203.39 21.06 202.43 20.46Q201.47 19.87 200.30 19.63Q199.14 19.39 198.02 19.39L198.02 19.39L198.02 19.10Q198.75 19.10 199.58 18.91Q200.42 18.72 201.17 18.24Q201.92 17.76 202.38 16.85Q202.85 15.94 202.85 14.50L202.85 14.50Q202.85 12.99 202.34 11.98Q201.82 10.98 200.82 10.48Q199.81 9.98 198.37 9.98L198.37 9.98L195.04 9.98Q195.04 9.95 194.96 9.68Q194.88 9.41 194.80 9.12Q194.72 8.83 194.72 8.83ZM193.95 8.83L196.93 8.83L196.93 31.23L193.95 31.23L193.95 8.83ZM193.95 28.90L194.05 28.90L194.05 31.23L191.49 31.23L191.52 30.91Q191.58 30.91 191.73 30.91Q191.87 30.91 191.90 30.91L191.90 30.91Q192.74 30.91 193.34 30.32Q193.95 29.73 193.95 28.90L193.95 28.90ZM194.05 8.83L194.05 11.17L193.95 11.17Q193.95 10.34 193.34 9.74Q192.74 9.15 191.90 9.15L191.90 9.15Q191.87 9.15 191.73 9.15Q191.58 9.15 191.52 9.15L191.52 9.15L191.49 8.83L194.05 8.83ZM234.75 11.58L234.75 11.58Q237.12 11.58 239.12 12.30Q241.12 13.02 242.61 14.35Q244.10 15.68 244.93 17.52Q245.76 19.36 245.76 21.63L245.76 21.63Q245.76 23.90 244.93 25.74Q244.10 27.58 242.61 28.91Q241.12 30.24 239.12 30.96Q237.12 31.68 234.75 31.68L234.75 31.68Q232.42 31.68 230.43 30.96Q228.45 30.24 226.94 28.91Q225.44 27.58 224.62 25.74Q223.81 23.90 223.81 21.63L223.81 21.63Q223.81 19.36 224.62 17.52Q225.44 15.68 226.94 14.35Q228.45 13.02 230.43 12.30Q232.42 11.58 234.75 11.58ZM234.75 30.62L234.75 30.62Q236.99 30.62 238.75 29.49Q240.51 28.35 241.52 26.34Q242.53 24.32 242.53 21.63L242.53 21.63Q242.53 18.91 241.52 16.91Q240.51 14.91 238.75 13.78Q236.99 12.64 234.75 12.64L234.75 12.64Q232.58 12.64 230.82 13.78Q229.06 14.91 228.03 16.91Q227.01 18.91 227.01 21.63L227.01 21.63Q227.01 24.32 228.03 26.34Q229.06 28.35 230.82 29.49Q232.58 30.62 234.75 30.62ZM272.48 11.58L272.48 11.58Q274.85 11.58 276.85 12.30Q278.85 13.02 280.34 14.35Q281.82 15.68 282.66 17.52Q283.49 19.36 283.49 21.63L283.49 21.63Q283.49 23.90 282.66 25.74Q281.82 27.58 280.34 28.91Q278.85 30.24 276.85 30.96Q274.85 31.68 272.48 31.68L272.48 31.68Q270.14 31.68 268.16 30.96Q266.18 30.24 264.67 28.91Q263.17 27.58 262.35 25.74Q261.54 23.90 261.54 21.63L261.54 21.63Q261.54 19.36 262.35 17.52Q263.17 15.68 264.67 14.35Q266.18 13.02 268.16 12.30Q270.14 11.58 272.48 11.58ZM272.48 30.62L272.48 30.62Q274.72 30.62 276.48 29.49Q278.24 28.35 279.25 26.34Q280.26 24.32 280.26 21.63L280.26 21.63Q280.26 18.91 279.25 16.91Q278.24 14.91 276.48 13.78Q274.72 12.64 272.48 12.64L272.48 12.64Q270.30 12.64 268.54 13.78Q266.78 14.91 265.76 16.91Q264.74 18.91 264.74 21.63L264.74 21.63Q264.74 24.32 265.76 26.34Q266.78 28.35 268.54 29.49Q270.30 30.62 272.48 30.62ZM304.99 21.89L307.33 20.06L315.26 29.44Q315.84 30.14 316.46 30.51Q317.09 30.88 318.08 30.91L318.08 30.91L318.08 31.23L316.48 31.23Q316.10 31.23 315.49 31.18Q314.88 31.14 314.13 30.96Q313.38 30.78 312.61 30.37Q311.84 29.95 311.23 29.18L311.23 29.18Q311.17 29.12 310.70 28.56Q310.24 28 309.54 27.17Q308.83 26.34 308.03 25.44Q307.23 24.54 306.54 23.73Q305.86 22.91 305.42 22.40Q304.99 21.89 304.99 21.89L304.99 21.89ZM312.86 12.26L315.26 12.26L306.59 21.82L304.99 21.89L312.86 12.26ZM317.18 12.03L317.31 12.03L317.31 12.35L317.18 12.35Q316.22 12.35 315.39 12.67Q314.56 12.99 314.02 13.63L314.02 13.63L311.74 13.60Q312.10 13.15 311.87 12.75Q311.65 12.35 311.07 12.35L311.07 12.35L310.78 12.35L310.78 12.03L317.18 12.03ZM301.02 12.03L303.94 12.03L303.94 31.23L301.02 31.23L301.02 12.03ZM301.02 29.18L301.09 29.18L301.09 31.23L298.82 31.23L298.82 30.91Q298.82 30.91 298.99 30.91Q299.17 30.91 299.17 30.91L299.17 30.91Q299.94 30.91 300.46 30.40Q300.99 29.89 301.02 29.18L301.02 29.18ZM303.84 31.23L303.84 29.18L303.94 29.18Q303.94 29.89 304.46 30.40Q304.99 30.91 305.76 30.91L305.76 30.91Q305.79 30.91 305.95 30.91Q306.11 30.91 306.11 30.91L306.11 30.91L306.11 31.23L303.84 31.23ZM303.94 14.08L303.84 14.08L303.84 12.03L306.11 12.03L306.11 12.35Q306.11 12.35 305.95 12.35Q305.79 12.35 305.76 12.35L305.76 12.35Q304.99 12.35 304.46 12.85Q303.94 13.34 303.94 14.08L303.94 14.08ZM301.09 12.03L301.09 14.08L301.02 14.08Q300.99 13.34 300.46 12.85Q299.94 12.35 299.17 12.35L299.17 12.35Q299.17 12.35 298.99 12.35Q298.82 12.35 298.78 12.35L298.78 12.35L298.78 12.03L301.09 12.03ZM338.05 11.58L338.05 11.58Q338.88 11.58 339.63 11.65Q340.38 11.71 341.01 11.79Q341.63 11.87 342.11 11.98Q342.59 12.10 342.85 12.19L342.85 12.19L342.75 15.62L342.40 15.62Q342.40 14.24 341.46 13.46Q340.51 12.67 338.62 12.67L338.62 12.67Q337.02 12.67 335.95 13.49Q334.88 14.30 334.88 15.52L334.88 15.52Q334.88 16.00 335.04 16.43Q335.20 16.86 335.55 17.26Q335.90 17.66 336.42 18.05L336.42 18.05L342.40 22.43Q343.33 23.04 343.81 24.08Q344.29 25.12 344.26 26.30L344.26 26.30Q344.26 27.84 343.42 29.07Q342.59 30.30 341.18 30.99Q339.78 31.68 337.98 31.68L337.98 31.68Q336.90 31.68 335.79 31.49Q334.69 31.30 333.79 30.94Q332.90 30.59 332.32 30.11L332.32 30.11Q332.19 29.60 332.19 28.83Q332.19 28.06 332.35 27.25Q332.51 26.43 332.77 25.82L332.77 25.82L333.12 25.82Q332.99 27.26 333.57 28.35Q334.14 29.44 335.25 30.03Q336.35 30.62 337.86 30.59L337.86 30.59Q339.81 30.56 340.88 29.65Q341.95 28.74 341.95 27.30L341.95 27.30Q341.95 26.50 341.58 25.86Q341.22 25.22 340.38 24.61L340.38 24.61L334.59 20.38Q333.47 19.58 333.01 18.51Q332.54 17.44 332.61 16.32L332.61 16.32Q332.67 14.94 333.39 13.87Q334.11 12.80 335.33 12.19Q336.54 11.58 338.05 11.58ZM340.19 11.87L342.85 11.87L342.85 12.45L340.19 12.45L340.19 11.87Z" transform="translate(0, 0)"></path></g></svg></svg>